<?xml version="1.0" standalone="no"?>
<!DOCTYPE svg PUBLIC "-//W3C//DTD SVG 20010904//EN"
 "http://www.w3.org/TR/2001/REC-SVG-20010904/DTD/svg10.dtd">
<svg version="1.0" xmlns="http://www.w3.org/2000/svg"
 width="700.000000pt" height="700.000000pt" viewBox="0 0 700.000000 700.000000"
 preserveAspectRatio="xMidYMid meet">
<metadata>
Created by potrace 1.11, written by Peter Selinger 2001-2013
</metadata>
<g transform="translate(0.000000,700.000000) scale(0.100000,-0.100000)"
fill="#000000" stroke="none">
<path d="M3325 6763 c-472 -99 -783 -571 -681 -1030 3 -16 -1 -24 -17 -28 -24
-7 -120 -42 -152 -55 -11 -5 -54 -21 -95 -35 -41 -15 -124 -45 -185 -67 -60
-22 -158 -57 -217 -78 l-107 -39 -27 47 c-156 271 -475 442 -793 426 -164 -8
-343 -69 -464 -158 -41 -30 -158 -145 -195 -191 -47 -58 -127 -228 -148 -315
-26 -103 -26 -327 0 -420 32 -118 94 -243 163 -331 81 -104 232 -217 361 -269
199 -80 430 -84 624 -10 28 11 53 19 53 17 1 -1 82 -137 180 -302 97 -165 187
-316 200 -335 l22 -35 -64 -100 c-35 -55 -99 -154 -142 -220 -43 -66 -97 -150
-121 -187 -23 -38 -46 -68 -51 -68 -4 0 -27 8 -51 18 -124 53 -296 75 -441 58
-57 -7 -178 -42 -242 -71 -179 -79 -365 -263 -437 -434 -10 -25 -23 -55 -29
-66 -35 -77 -59 -332 -39 -435 59 -315 253 -556 547 -678 162 -68 392 -75 583
-18 136 40 307 156 402 272 45 54 64 71 76 66 72 -30 810 -407 807 -412 -2 -4
-7 -35 -12 -71 -54 -460 244 -878 692 -972 88 -18 268 -20 335 -2 27 7 50 12
50 10 0 -12 236 87 250 104 3 3 23 18 45 32 94 61 201 183 263 299 103 192
132 410 81 618 -21 87 -87 243 -108 256 -6 4 -11 13 -11 21 0 15 -2 13 243
269 95 99 188 196 207 216 19 20 89 93 155 162 175 182 442 462 501 524 51 54
51 54 75 36 126 -96 321 -156 500 -154 245 2 446 87 618 262 165 168 249 374
249 616 -1 287 -141 551 -381 718 -60 41 -194 103 -262 121 -140 36 -305 38
-440 4 -76 -19 -194 -71 -259 -114 l-67 -43 -589 589 -590 590 39 57 c45 65
82 146 111 238 49 160 45 351 -11 517 -98 292 -344 511 -650 580 -85 19 -265
19 -354 0z m-588 -1280 c13 -35 84 -129 139 -186 31 -32 54 -63 51 -71 -5 -14
-464 -725 -477 -739 -4 -4 -125 51 -269 123 -220 109 -262 133 -256 148 4 9
15 55 25 102 19 85 21 247 5 331 l-7 36 93 32 c52 18 103 37 114 41 11 5 45
18 75 28 49 18 174 63 390 143 89 33 108 35 117 12z m1889 -857 c321 -321 584
-586 584 -589 0 -4 -18 -34 -39 -67 -42 -64 -101 -197 -101 -226 0 -14 -8 -16
-62 -10 -35 3 -76 8 -93 11 -16 3 -97 14 -180 25 -82 11 -165 23 -182 25 -18
3 -57 8 -85 11 -88 11 -95 16 -97 71 -3 112 -33 229 -87 337 -52 102 -89 153
-179 241 -335 329 -876 330 -1209 2 -40 -40 -85 -88 -99 -107 l-26 -34 -60 29
c-34 16 -61 32 -61 36 0 9 59 101 355 559 60 94 115 170 122 170 7 0 36 -9 65
-21 96 -38 214 -57 328 -54 121 4 147 8 250 41 66 21 218 98 244 124 6 6 14
10 19 10 5 0 272 -263 593 -584z m-2551 -208 c135 -68 245 -125 245 -128 0 -4
-29 -51 -64 -106 -246 -379 -279 -427 -286 -413 -5 8 -82 139 -173 292 l-164
278 68 66 c37 36 78 81 91 99 13 19 26 34 31 34 4 0 117 -55 252 -122z m526
-264 c61 -30 70 -38 66 -57 -42 -177 -50 -270 -35 -372 32 -220 103 -362 257
-515 140 -139 260 -201 479 -246 l22 -4 0 -498 0 -497 -89 -22 c-50 -11 -115
-32 -145 -46 l-55 -26 -53 87 c-69 114 -86 143 -94 165 -3 9 -10 17 -15 17 -5
0 -9 4 -9 9 0 8 -128 225 -561 951 -74 124 -136 230 -139 235 -3 6 -31 53 -62
107 -32 53 -58 101 -58 107 0 6 22 43 48 83 27 40 79 120 116 178 167 259 247
380 252 380 2 0 36 -16 75 -36z m1875 -569 c54 -8 119 -17 144 -20 25 -3 56
-7 70 -10 43 -6 103 -14 150 -20 25 -3 78 -11 118 -17 l72 -11 1 -38 c1 -22 2
-42 3 -46 1 -5 6 -34 10 -66 14 -109 76 -259 149 -360 l34 -48 -46 -48 c-25
-27 -127 -133 -226 -237 -99 -103 -193 -202 -210 -219 -16 -18 -102 -107 -190
-199 -88 -93 -182 -191 -209 -219 -27 -29 -97 -102 -157 -164 l-109 -112 -73
52 c-40 29 -102 65 -137 80 -36 16 -74 33 -85 38 -18 8 -147 38 -167 39 -5 0
-8 225 -8 499 0 542 -3 511 53 511 44 0 218 68 294 115 167 103 320 296 375
474 15 47 10 46 144 26z m-2251 -670 c111 -187 266 -448 345 -580 79 -132 151
-253 160 -270 9 -16 56 -95 103 -174 l86 -144 -52 -53 c-28 -29 -72 -84 -97
-123 -25 -38 -48 -70 -52 -70 -5 -1 -777 381 -795 394 -1 0 4 25 12 55 24 88
29 129 29 230 1 167 -28 286 -106 430 -37 68 -133 190 -182 231 -18 15 -13 25
129 245 81 126 152 235 158 242 8 10 16 2 35 -30 14 -24 116 -196 227 -383z"/>
</g>
</svg>
